<?xml version="1.0" encoding="UTF-8" standalone="no"?>
<svg
   xmlns:dc="http://purl.org/dc/elements/1.1/"
   xmlns:cc="http://creativecommons.org/ns#"
   xmlns:rdf="http://www.w3.org/1999/02/22-rdf-syntax-ns#"
   xmlns:svg="http://www.w3.org/2000/svg"
   xmlns="http://www.w3.org/2000/svg"
   xmlns:sodipodi="http://sodipodi.sourceforge.net/DTD/sodipodi-0.dtd"
   xmlns:inkscape="http://www.inkscape.org/namespaces/inkscape"
   width="739.22064"
   height="548.33331"
   version="1.1"
   id="svg46"
   sodipodi:docname="speech-bubble.svg"
   inkscape:version="1.0.2-2 (e86c870879, 2021-01-15)">
  <metadata
     id="metadata52">
    <rdf:RDF>
      <cc:Work
         rdf:about="">
        <dc:format>image/svg+xml</dc:format>
        <dc:type
           rdf:resource="http://purl.org/dc/dcmitype/StillImage" />
      </cc:Work>
    </rdf:RDF>
  </metadata>
  <defs
     id="defs50" />
  <sodipodi:namedview
     pagecolor="#ffffff"
     bordercolor="#666666"
     borderopacity="1"
     objecttolerance="10"
     gridtolerance="10"
     guidetolerance="10"
     inkscape:pageopacity="0"
     inkscape:pageshadow="2"
     inkscape:window-width="1920"
     inkscape:window-height="1017"
     id="namedview48"
     showgrid="false"
     inkscape:zoom="0.75722505"
     inkscape:cx="842.58091"
     inkscape:cy="339.88512"
     inkscape:window-x="1912"
     inkscape:window-y="-8"
     inkscape:window-maximized="1"
     inkscape:current-layer="svg46" />
  <title
     id="title32">Comic Bubble</title>
  <g
     id="g80"
     transform="translate(-238.95235,-337.88712)">
    <path
       fill="none"
       fill-rule="evenodd"
       stroke="#000000"
       stroke-width="7.5"
       fill-opacity="0.75"
       id="path583"
       d="M 283.39769,883.28832 430.31056,681.12673 283.39772,691.62856 392.31585,612.86428 240.33704,552.47842 430.31056,534.10012 366.98607,402.82632 480.9702,489.467 l 43.06064,-115.52093 43.06066,86.64069 73.45649,-115.52094 55.72555,94.51709 88.65436,-65.63684 -2.53308,81.38977 93.72033,-84.01526 -43.06066,136.52472 131.71496,36.75671 -146.91284,44.63306 131.71497,97.14252 -157.04474,5.25098 40.52765,115.52093 -93.72022,-81.38965 -53.19263,97.14246 -53.19265,-76.13873 -68.39044,94.51704 -15.19791,-91.89156 -58.25851,63.01142 -10.13193,-86.64075 z" />
    <path
       style="fill:#ffffff;stroke-width:1.32061"
       d="m 641.13517,354.83117 c -8.8898,8.21852 -14.23569,20.04609 -21.40319,29.83757 -17.66847,27.39127 -35.02345,54.98338 -52.63359,82.41182 -14.73328,-27.1914 -27.5806,-55.6257 -42.29825,-82.64396 -6.44704,11.57846 -9.9873,25.94085 -15.31445,38.57228 -8.95558,23.63908 -17.36145,47.51134 -27.2959,70.76247 -34.46619,-24.06139 -67.04077,-50.74089 -101.20474,-75.2052 -3.72495,2.17112 3.19669,8.18897 3.36859,11.60177 16.68956,35.62953 34.31419,70.81691 50.66556,106.60584 -58.04487,6.29242 -116.39221,11.27172 -174.50125,17.52131 -1.68954,4.27031 8.96224,4.25895 11.57599,6.85325 42.02755,17.16247 84.49509,33.25495 126.26282,51.04731 -31.67235,24.81283 -65.79534,46.50275 -96.61613,72.35505 -1.31615,4.24948 6.24587,1.10039 8.50102,1.68061 41.72107,-2.49787 84.77297,-6.68689 125.70353,-8.1289 -41.8238,59.53111 -85.04659,118.16561 -127.45189,177.23533 0.92834,4.4801 6.285,-2.98337 8.35699,-3.62911 55.81569,-43.44918 110.32687,-88.59382 166.42282,-131.66391 4.03329,26.81989 6.39666,53.91552 10.05935,80.78684 4.04905,1.14293 6.81884,-5.67208 10.09545,-7.55998 16.23769,-16.31156 31.14654,-33.90058 47.78189,-49.78601 5.97719,28.84613 9.6167,58.54639 15.52234,87.3151 8.79957,-8.85225 15.58487,-21.21973 23.62066,-31.4021 14.03831,-19.39583 27.93527,-39.12743 42.46923,-58.02546 17.88338,23.19594 33.37118,48.29477 51.29234,71.36717 5.6194,-0.23821 6.93694,-8.59618 10.1695,-12.25506 14.78894,-26.1034 28.5791,-53.04541 43.7976,-78.733 18.28216,11.98066 33.63707,28.12457 50.58196,41.93959 11.0095,9.42502 21.79004,19.15754 33.09888,28.21016 3.42622,-2.73798 -2.62207,-9.71776 -2.82083,-13.93394 -10.07998,-29.79775 -20.97958,-59.3244 -30.5504,-89.27236 48.607,-2.44349 97.4989,-2.71712 145.96366,-5.39852 0.37857,-4.59882 -6.78246,-6.7961 -9.39472,-10.05074 -37.4217,-28.93409 -76.13882,-56.15308 -113.59752,-85.03843 45.3241,-15.01555 91.34654,-27.85436 136.75033,-42.6155 -0.79497,-4.66343 -11.1162,-3.57029 -15.19103,-6.15617 -34.5206,-9.85968 -69.18596,-19.21979 -103.61239,-29.40491 11.69051,-41.04121 25.73762,-81.39707 37.42849,-122.4248 -2.95646,-2.76998 -6.40662,4.76848 -9.33971,5.65903 -26.29998,22.74615 -51.59786,46.7475 -78.43194,68.77754 0.2385,-26.12711 1.7861,-52.21809 2.08667,-78.3494 -3.88906,-1.89601 -8.20921,5.2949 -12.15054,6.77767 -24.58777,17.21844 -47.68767,36.72346 -73.26877,52.42802 -3.6168,-0.58903 -4.65896,-7.44699 -7.35501,-10.07083 -15.88006,-25.76299 -30.31429,-52.68641 -46.6972,-77.97164 l -0.36626,-0.0335 z"
       id="path76" />
  </g>
</svg>
